<?xml version="1.0" encoding="iso-8859-1"?>
<!-- Generator: Adobe Illustrator 26.0.1, SVG Export Plug-In . SVG Version: 6.00 Build 0)  -->
<svg version="1.1" id="Layer_1" xmlns="http://www.w3.org/2000/svg" xmlns:xlink="http://www.w3.org/1999/xlink" x="0px" y="0px"
	 viewBox="0 0 1000 1000" style="enable-background:new 0 0 1000 1000;" xml:space="preserve">
<g>
</g>
<g>
	<g>
		<path style="fill-rule:evenodd;clip-rule:evenodd;" d="M188.167,464.296c0-3.384,0-7.079,0-10.873
			c0-3.57,0.477-7.105,0.571-10.016c0.285-8.885,0.015-18.31,0.291-28.046c0.509-18.455,0.565-37.309,0.856-56.377
			c0.062-4.1,0.337-8.771,0.571-13.161c0.265-4.946-0.892-10.178,0-14.308c0.566-2.616,4.105-6.031,6.586-8.298
			c2.797-2.569,5.901-4.588,8.584-6.295c3.244-2.071,6.15-4.162,9.155-5.725c1.614-0.841,3.462-1.546,5.153-2.288
			c14.921-6.565,32.68-11.376,51.794-14.308c3.062-5.813,6.082-11.667,9.16-17.459c-6.02-1.468-12.601-2.143-19.176-3.15
			c-19.265-2.938-40.413-5.413-61.81-6.581c1.147-2.605,3.581-4.297,5.439-6.295c5.418-5.833,10.649-11.963,16.312-18.029
			c6.357-6.819,12.684-14.064,19.171-21.174c7.867-8.631,16.208-17.599,24.895-26.899c3.394-3.638,7.095-7.655,11.163-11.734
			c1.677-1.681,3.758-3.726,5.719-5.724c2.47-2.512,3.856-4.935,6.586-6.01c5.361-2.107,13.078-1.806,19.456-1.142
			c27.324,2.839,49.293,15.253,68.111,26.613c4.764-1.432,8.475-3.929,13.447-5.153c-0.633-2.227-2.813-2.906-4.007-4.578
			c-10.655-9.419-21.237-19.083-32.909-27.76c-0.566-0.42-1.178-0.55-1.718-1.142c-1.894-2.086-5.709-4.51-8.298-6.295
			c-1.51-1.049-3.093-2.133-4.577-3.15c-7.385-5.07-16.198-9.549-24.325-14.594c0.675-0.991,2.123-1.105,3.15-1.432
			c27.008-8.584,53.528-17.832,80.982-26.328c4.136-1.277,8.335-2.86,12.881-4.292c2.258-0.711,4.614-1.749,6.581-2.004
			c2.455-0.316,5.237,0.784,8.298,1.718c11.086,3.378,20.614,7.702,29.478,12.876c1.977,1.157,4.033,1.988,6.005,3.436
			c1.946,1.422,4.863,3.083,7.157,4.577c19.098,12.456,35.306,28.206,50.081,44.643c6.233,0.394,12.31-0.82,18.024,0
			c-0.094-5.673-1.889-11.205-2.86-16.882c-2.922-17.08-5.761-34.678-8.869-51.8c-0.026-0.405-0.047-0.81,0.285-0.856
			c21.89,0.732,45.405,0.97,68.106,2.003c3.197,0.146,6.757-0.332,9.445,0.285c2.18,0.503,5.361,4.526,7.152,7.442
			c5.594,9.088,10.291,19.638,14.599,29.188c1.407,3.124,2.787,6.695,4.292,10.302c1.417,3.41,3.311,6.741,4.578,10.016
			c1.816,4.697,4.281,10.546,6.295,15.741c0.815,2.102,1.121,4.157,2.004,5.148c1.095,1.24,4.609,2.361,7.157,3.436
			c16.685,7.032,33.583,16.026,48.644,24.61c3.815,2.174,7.764,4.587,11.449,7.156c0.229,0.156,0.903,0.078,1.147,0.285
			c0.182,0.151,0.068,0.727,0.285,0.857c1.131,0.7,2.569,0.97,3.721,1.718c0.457,0.301,0.966,0.831,1.427,1.147
			c10.649,7.147,21.693,14.807,31.767,22.893c19.851,15.927,36.619,32.805,49.791,54.944c1.884,3.166,3.815,6.68,5.439,10.302
			c4.484,9.99,8.953,23.1,10.017,36.915c0.794,10.317-1.09,18.574-4.007,26.328c-12.632,33.568-43.21,48.805-90.427,48.079
			c0.364-2.014,2.86-3.317,4.577-4.868c0.836-0.757,1.697-1.5,2.574-2.288c0.436-0.394,0.67-1.028,1.147-1.432
			c5.252-4.479,10.873-13.593,9.726-24.896c-0.644-6.384-4.982-13.156-9.155-17.744c-2.979-3.269-6.939-7.292-10.587-10.011
			c-6.835-5.091-14.329-9.227-22.321-13.166c-23.11-11.392-51.276-20.23-79.554-26.613c-1.651,1.464-2.169,3.747-3.15,5.724
			c-0.966,1.951-2.377,3.783-2.86,6.01c4.136,2.128,8.729,3.539,13.162,5.148c25.855,9.388,52.443,19.062,79.269,28.902
			c2.06,0.758,4.416,1.816,6.581,2.58c4.313,1.515,6.523,2.149,8.874,5.433c8.636,12.092-4.152,34.378-9.16,44.928
			c-3.508-0.384-6.876-2.014-10.301-3.145c-23.053-7.608-47.606-14.236-72.689-20.318c-28.269-6.856-57.404-13.021-89.856-16.597
			c-15.159-1.671-33.142-3.679-49.505-1.432c-5.039,0.69-10.462,1.516-14.308,3.15c-3.176,1.344-9.419,7.043-10.016,10.302
			c-0.088,0.483-0.156,2.486,0,3.43c0.783,4.692,8.719,9.705,14.022,12.305c12.419,6.098,25.97,8.522,40.066,12.596
			c6.98,2.014,13.712,3.856,20.027,6.01c12.954,4.411,25.425,9.591,37.206,15.165c58.707,27.776,106.241,69.222,133.352,128.775
			c10.956,24.07,18.06,52.495,20.318,84.708c2.413,34.377-2.558,66.3-11.158,92.431c-7.219,21.927-17.593,41.772-29.764,59.236
			c-0.223,0.322-0.295,0.784-0.571,1.147c-0.939,1.224-2.299,3.051-3.436,4.577c-9.923,13.312-21.574,26.603-34.341,37.491
			c-1.183,1.007-2.553,1.816-3.721,2.86c-14.744,13.161-32.841,23.992-52.08,33.194c-17.723,8.475-37.932,14.926-60.098,18.6
			c-7.639,1.272-15.57,1.464-23.748,2.289c-14.454,1.464-30.028,0.529-43.787-1.142c-8.641-1.048-18.689-3.28-27.184-5.439
			c-10.323-2.621-20.167-5.89-29.764-9.726c-3.067-1.23-5.906-2.927-8.869-4.297c-1.542-0.706-3.114-1.287-4.578-2.004
			c-33.355-16.27-61.006-39.915-81.848-68.676c-7.328-10.12-13.883-20.894-19.742-32.914c-1.432-2.932-3.036-5.823-4.292-8.869
			c-6.181-14.978-12.149-32.089-13.738-51.509c-1.271-15.57-0.892-32.685,1.718-48.935c1.811-11.283,4.51-21.46,8.013-31.482
			c2.984-8.542,6.388-16.477,10.587-24.034c0.094-0.171,0.451,0.01,0.571-0.291c2.06-5.143,5.958-10.037,9.16-14.594
			c0.675-0.96,1.126-1.837,2.004-2.86c1.993-2.33,4.375-5.594,6.581-8.013c14.521-15.948,31.487-28.539,52.941-38.633
			c-30.413-7.172-56.688-18.481-76.409-36.344c-5.834,4.982-10.722,10.899-15.45,17.173c-1.52,2.014-2.729,4.26-4.583,6.009
			c-2.449,4.541-5.631,8.641-8.298,13.162c-1.329,2.252-2.668,4.609-4.007,6.866c-1.298,2.195-2.351,4.624-4.292,6.295
			c-8.05-13.992-16.737-29.623-25.466-44.928c-3.939-6.897-8.797-14.324-13.167-22.031c-2.984-5.273-6.113-11.246-9.44-17.173
			c-1.147-2.04-2.995-4.059-3.15-5.439c-0.28-2.506,1.76-7.473,2.865-10.301c8.548-21.87,23.691-38.135,40.06-51.794
			c-0.036-3.073-0.109-5.231-0.285-8.584c-1.271,0.14-2.87,1.464-4.292,2.574c-9.409,7.349-18.398,16.166-26.328,25.466
			c-9.175,10.764-16.146,23.385-23.463,35.774l-0.337-0.431L188.167,464.296z M626.861,165.82
			c-5.361-13.379-10.95-26.089-16.883-38.343c-2.989-6.176-5.844-12.502-10.016-17.744c-20.199-1.349-42.24-1.09-63.243-2.289
			c-0.348-0.088-0.986,0.825-0.285,0.856c3.705,23.006,8.33,45.089,11.734,68.397c-11.246,0.01-22.633-0.12-33.485,0.285
			c-22.845-25.928-48.514-49.936-83.846-63.814c-1.345-0.53-2.647-0.701-4.007-1.147c-2.88-0.944-5.839-2.408-8.014-2.288
			c-1.396,0.078-3.041,1.115-4.863,1.718c-1.655,0.54-3.576,1.204-5.153,1.718c-22.768,7.359-44.902,14.692-66.673,21.745
			c-1.614,0.525-3.758,0.41-4.868,2.004c24.709,15.746,47.009,35.369,67.25,55.23c1.287,1.261,3.539,2.574,3.435,4.292
			c-12.263,2.045-21.543,7.074-31.767,11.163c-5.88-3.207-11.371-7.307-17.453-10.587c-6.082-3.28-12.58-6.01-19.171-8.874
			c-13.021-5.652-28.482-10.302-46.646-8.013c-12.824,12.564-24.533,26.208-36.92,39.209c-6.171,6.477-12.362,13.068-18.315,19.742
			c-6.036,6.773-12.165,13.379-18.024,20.318c12.678,1.147,25.923,2.927,38.918,4.583c6.404,0.815,12.902,1.718,19.172,2.86
			c6.238,1.136,12.513,2.034,18.315,3.721c-6.363,10.234-12.736,20.458-17.453,32.337c-27.833,4.531-53.273,10.447-71.832,24.325
			c-2.419,1.811-6.358,5.05-6.866,7.152c-0.753,3.104-0.285,7.904-0.285,12.02c0,28.357-1.568,56.875-1.433,84.994
			c2.486-1.713,3.591-4.806,5.725-6.871c0.67-1.116,1.78-1.962,2.574-2.86c0.841-0.955,1.359-2.133,2.003-2.86
			c0.125-0.145,0.732,0.14,0.856,0c0.374-0.426,0.488-1.271,0.862-1.718c0.488-0.587,0.954-0.919,1.432-1.433
			c4.588-4.92,9.269-9.383,14.308-13.737c3.986-3.441,8.132-6.654,12.59-9.726c4.422-3.057,8.953-6.42,14.308-8.304
			c-0.031,10.214-0.555,20.007,0,30.049c-15.964,12.061-30.49,27.491-39.204,46.932c-1.168,2.605-3.321,6.996-3.15,9.16
			c0.057,0.721,0.488,1.204,1.147,2.289c1.546,2.558,3.576,5.781,4.577,7.728c0.218,0.425,0.369,0.789,0.571,1.142
			c11.833,20.811,23.671,40.932,34.912,61.24c1.998-1.396,3.036-3.783,4.292-5.724c4.053-6.233,8.096-11.828,12.596-17.453
			c5.896-7.38,11.802-15.201,20.889-19.462c19.368,19.654,46.184,31.933,77.837,38.918c9.383,2.076,19.638,3.223,30.049,4.007
			c1.359,0.104,3.052,0.042,4.292,0.862c-13.053,5.003-25.524,9.305-36.915,14.879c-34.964,17.111-60.004,43.521-73.545,82.129
			c-8.874,25.295-13.016,61.842-6.295,91.289c4.77,20.899,12.777,39.526,22.321,55.521c8.076,13.54,17.22,26.021,27.755,36.915
			c2.201,2.273,4.089,4.78,6.295,6.866c26.593,25.14,59.387,45.816,100.448,55.23c21.356,4.899,45.945,7.857,70.965,5.154
			c7.749-0.841,15.57-1.412,23.183-2.865c3.44-0.654,6.876-1.749,10.301-2.574c17.827-4.287,32.945-10.426,47.502-17.453
			c11.661-5.631,22.186-12.492,32.053-19.747c3.155-2.325,6.414-4.583,9.16-6.871c3.01-2.512,5.875-5.236,8.584-7.722
			c3.477-3.202,6.737-6.114,10.017-9.445c12.907-13.135,24.05-28.093,33.479-44.357c18.745-32.333,32.442-75.013,29.764-125.054
			c-1.78-33.199-8.221-60.113-18.891-84.993c-10.291-24.003-24.299-44.762-41.207-62.672
			c-16.742-17.734-35.857-33.817-57.233-46.646c-21.507-12.902-45.468-24.055-71.256-32.623c-1.557-0.514-3.021-1.261-4.578-1.718
			c-5.174-1.516-10.037-2.953-15.17-4.292c-6.876-1.79-13.893-3.155-20.603-5.433c-12.539-4.266-25.14-8.626-33.194-18.891
			c-2.071-3.664-4.235-8.096-2.865-13.732c0.591-2.424,2.673-5.465,3.721-7.157c2.221-3.571,6.301-6.617,9.731-8.584
			c6.326-3.623,15.694-4.619,24.039-5.439c19.073-1.869,38.306,0.534,54.945,2.864c28.772,4.022,55.193,9.29,81.843,15.45
			c26.473,6.124,52.526,14.272,76.695,21.751c1.469-2.844,2.813-5.896,4.006-8.869c0.97-2.429,1.619-4.111,2.289-6.871
			c1.012-4.178,2.076-11.604-0.861-13.738c-0.529-0.384-1.334-0.29-2.004-0.571c-1.168-0.493-2.564-0.716-3.716-1.142
			c-16.379-6.062-34.725-12.928-49.796-18.315c-8.382-3-16.592-6.129-24.896-9.16c-8.272-3.021-16.545-6.259-25.181-8.87
			c-1.738-1.604-5.195-1.484-6.871-3.15c4.665-9.259,8.968-18.88,14.022-27.755c29.613,6.845,61.126,15.554,86.997,28.04
			c8.828,4.266,16.873,8.755,24.325,14.308c9.762,7.281,19.405,16.654,23.178,28.331c2.606,8.054,1.635,17.386-0.856,24.039
			c-0.898,2.393-2.237,4.526-2.865,6.871c17.23-2.04,31.154-6.882,42.068-16.026c7.396-6.197,14.485-15.704,18.03-25.757
			c1.287-3.648,2.507-7.852,2.86-11.734c1.075-11.636-0.82-20.51-3.43-28.902c-8.107-26.043-23.748-44.305-40.351-60.954
			c-3.363-3.368-7.027-6.669-10.587-9.731c-19.954-17.147-43.371-32.369-66.393-44.928c-15.346-8.366-31.591-16.239-48.079-22.892
			C632.451,178.816,629.482,172.359,626.861,165.82z"/>
	</g>
	<g>
		<path style="fill-rule:evenodd;clip-rule:evenodd;" d="M548.454,118.318c3.145,0,6.295,0,9.445,0
			c8.761,14.511,16.468,30.08,25.466,44.357c-0.404-13.192-1.183-28.705-1.718-42.069c4.681,0.052,10.644-0.166,14.023,0.285
			c3.591,4.754,5.496,10.639,7.728,16.311c2.242,5.704,4.748,11.329,6.866,17.173c2.153,5.932,3.954,12.035,6.01,18.029
			c2.04,5.927,4.043,11.859,6.01,17.739c19.389,6.285,38.7,14.993,56.377,24.325c34.502,18.221,65.495,41.487,89.286,72.118
			c2.844,3.664,5.459,7.774,8.584,11.729c5.818,7.375,11.096,15.372,14.594,25.472c2.948,8.511,4.811,18.59,2.864,29.188
			c-0.622,3.373-1.136,5.849-2.294,8.584c-3.01,7.152-8.439,14.355-14.018,19.176c-6.825,5.896-14.552,10.857-23.183,14.594
			c5.584-23.665-9.84-39.78-22.036-50.082c-8.283-6.996-16.851-12.404-26.899-17.739c-3.29-1.749-6.404-3.623-9.731-5.153
			c-27.776-12.803-59.62-21.035-93.001-25.752c-6.487,11.635-12.403,23.842-18.315,36.053c1.391,2.03,4.516,2.528,6.581,3.721
			c1.298,0.753,4.261,1.287,5.439,2.574c7.696,2.252,15.112,5.906,23.178,8.874c15.289,5.626,31.128,11.34,46.932,17.168
			c3.809,1.406,7.816,2.937,11.734,4.292c4.017,1.391,8.522,2.232,11.734,4.007c1.635,0.908,5.278,4.043,6.295,5.725
			c2.413,3.986,2.46,11.542,0,16.597c-5.786-3.394-12.866-5.947-20.603-8.298c-2.668-0.81-5.511-0.97-8.304-1.718
			c-12.279-3.29-26.121-7.623-38.628-10.873c-21.076-5.475-43.553-10.577-64.961-14.308c-20.957-3.654-47.523-8.47-71.832-6.871
			c-12.02,0.794-23.567,2.689-32.623,7.157c-6.321,3.124-12.232,7.972-15.45,14.308c-1.085,2.133-1.484,4.583-2.865,6.866
			c-3.519,18.834,12.648,29.986,24.61,36.058c6.664,3.378,13.291,5.838,20.318,8.013c7.162,2.216,14.661,3.617,22.607,5.439
			c8.62,1.972,18.019,6.311,26.328,9.725c13.758,5.662,27.215,12.995,39.495,20.033c2.59,1.484,5.195,2.735,7.728,4.297
			c7.126,4.396,14.91,9.004,22.031,13.732c4.842,3.218,9.15,7.006,13.452,10.587c4.375,3.649,8.667,7.266,12.876,10.878
			c6.866,7.25,13.883,14.023,20.318,21.46c6.462,7.463,12.077,15.709,17.744,24.039c11.267,16.571,20.1,35.545,26.613,56.948
			c4.987,16.394,7.536,34.066,7.728,54.373c0.067,6.856,0.39,13.722,0.285,20.603c-0.389,25.612-6.788,49.568-14.308,69.253
			c-7.66,20.048-17.77,37.875-30.049,53.512c-1.614,2.056-2.901,4.141-4.577,6.01c-11.329,12.611-24.641,23.572-39.204,33.77
			c-11.947,8.361-25.575,16.281-40.351,22.321c-4.925,2.014-9.803,4.328-14.879,6.009c-21.169,6.991-45.307,11.542-72.974,10.587
			c-33.812-1.168-66.222-12.258-90.432-24.61c-1.671-0.857-3.373-1.593-5.148-2.58c-4.603-2.543-10.395-5.47-14.879-8.584
			c-10.198-7.074-19.478-15.263-28.331-24.034c-8.439-8.361-16.576-18.289-23.468-28.622c-16.675-25.01-29.79-54.639-30.334-95.005
			c-0.317-23.421,5.594-43.844,12.591-60.669c7.997-19.218,19.716-36.24,34.056-49.505c5.257-4.868,11.298-9.409,17.744-13.452
			c20.583-12.922,49.454-21.699,84.703-18.886c19.773,1.578,36.91,5.6,54.088,10.302c-1.754,1.453-4.188,0.856-6.01,0.856
			c-23.365,0-41.809,5.554-57.234,14.308c-3.103,1.764-6.793,4.323-10.016,6.581c-3.841,2.699-7.593,5.771-11.158,9.16
			c-7.868,7.468-15.32,16.011-21.18,26.042c-3.322,5.688-6.191,11.927-8.584,18.6c-4.702,13.109-8.319,29.426-6.581,48.079
			c0.773,8.288,2.273,16.504,4.577,23.748c4.541,14.278,10.779,26.266,19.462,37.201c16.654,20.988,40.792,37.133,71.542,41.783
			c18.304,2.767,36.22,1.054,50.362-3.435c13.789-4.375,25.918-10.421,36.344-18.6c5.444-4.266,10.686-9.212,15.455-14.594
			c0.555-0.628,1.464-1.08,2.003-1.718c7.795-9.155,14.905-20.609,19.742-33.194c1.92-4.987,3.192-10.468,4.583-16.597
			c0.405-1.801,1.137-3.695,1.427-5.439c0.296-1.77,0.088-3.529,0.291-5.153c0.182-1.464,0.722-2.771,0.857-4.292
			c0.342-3.742,0-7.557,0-11.158c0-3.768,0.254-7.551,0-11.158c-1.812-25.819-11.2-46.096-22.893-62.963
			c-11.895-17.152-27.745-29.966-44.642-41.207c-4.178-2.776-8.947-5.496-13.738-7.728c-14.226-6.627-30.682-12.601-48.364-16.021
			c-18.471-3.576-37.289-5.122-59.807-4.583c-6.487,0.156-13.027,1.396-19.747,1.432c-11.604,0.062-22.617-2.154-32.623-4.577
			c-29.639-7.188-52.09-21.704-66.964-44.072c-9.238-0.099-15.938,3.69-21.46,7.728c-9.321,6.814-16.036,17.339-21.179,28.617
			c-2.045-4.329-4.536-8.273-6.866-12.876c-0.716-1.422-1.931-3.456-2.004-4.583c-0.098-1.49,1.173-4.074,2.004-6.295
			c4.962-13.255,12.461-27.848,18.6-38.918c-3.602-2.154-7.847-0.893-11.158,0c-10.068,2.714-17.765,9.627-24.901,14.594
			c-0.929-0.805-1.702-2.092-2.288-3.145c-0.618-1.121-1.578-2.59-1.713-3.721c-0.311-2.543,1.495-6.342,2.574-8.869
			c3.285-7.697,8.719-14.942,13.737-20.318c1.869-2.008,3.519-4.224,5.434-6.009c5.636-5.252,12.414-10.774,18.6-15.455
			c-2.678-11.304-2.709-26.266-2.004-38.633c-10.322-4.214-20.52,1.069-27.184,5.439c-9.684,6.352-18.31,15.906-25.181,24.61
			c0.483-4.063-1.027-8.921,0-13.737c0.426-1.998,3.047-5.149,4.863-7.728c1.282-1.816,2.579-3.633,4.007-5.434
			c3.793-4.785,8.096-10.478,12.305-15.17c8.226-9.165,16.976-17.131,26.899-22.607c-9.497-4.956-26.841-3.104-37.771,0
			c-3.171,0.903-5.87,2.434-8.584,2.574c1.91-7.131,8.221-11.293,14.018-14.879c17.546-10.847,41.264-17.064,64.675-22.036
			c2.693-6.461,4.385-12.674,8.298-20.318c2.097-4.089,4.951-9.108,8.013-13.446c0.192-0.27,0.358-0.135,0.571-0.576
			c0.441-0.903,2.299-2.195,2.288-3.716c-0.01-3.223-4.541-4.038-6.005-6.01c-17.967-6.648-40.127-9.098-62.957-10.878
			c0.851-2.107,2.662-3.249,4.292-4.577c3.954-4.629,8.335-8.838,12.876-12.876c18.808-2.626,44.093-4.027,59.522,2.574
			c-1.822-10.017-4.785-18.377-10.016-25.181c-2.527-3.295-6.254-6.871-10.011-9.445c-1.521-1.038-3.228-1.739-4.583-3.145
			c2.714-2.73,5.537-5.34,8.013-8.304c2.128-1.152,6.227-1.458,10.016-1.142c6.783,0.566,13.244,3.197,19.462,5.434
			c17.578,6.342,35.317,15.704,50.362,23.754c12.59-9.539,27.807-16.452,45.504-20.889c-3.114-4.578-6.352-8.921-10.017-13.167
			c-1.147-1.323-2.553-2.434-3.721-3.716c-4.302-4.733-8.48-8.906-13.161-13.452c-0.322-0.311-0.498-0.805-0.861-1.147
			c-7.816-7.333-17.194-14.469-26.613-20.603c-0.805-0.524-1.427-1.168-2.289-1.713c-2.06-1.308-4.868-2.475-6.581-4.583
			c6.446-2.044,13.218-3.757,19.456-6.009c19,7.25,35.514,17.23,48.935,30.334c0.835,0.815,1.925,1.681,2.288,2.864
			c2.46,1.546,3.379,4.635,5.725,6.295c-2.284-20.323-8.044-37.169-19.457-48.364c-0.95-0.233-2.434-1.007-2.003-1.718
			c2.325-0.208,4.5-1.645,6.581-1.718c4.847-0.171,10.172,2.408,14.594,4.292c4.598,1.962,9.113,4.157,12.59,6.295
			c5.501,3.389,11.345,7.66,16.597,11.734c3.467,2.694,6.576,5.641,10.017,8.584c2.112,1.806,4.141,3.799,6.295,5.724
			c2.59,2.315,5.647,5.044,8.298,7.728c3.4,3.441,7.821,7.795,11.734,12.019c1.427,1.536,5.06,6.368,6.871,6.866
			c1.432,0.4,4.401,0.104,6.581,0c14.448-0.685,28.938-0.877,43.495-2.003c-4.069-21.875-9.061-42.826-12.876-64.961
			C547.587,119.262,548.225,118.349,548.454,118.318z M497.801,191.863c-4.494-4.137-8.278-7.147-12.876-11.444
			c-2.289-2.143-4.001-4.785-7.157-4.297c-14.049,2.174-29.987,5.537-44.928,7.728c1.972,9.57,5.761,17.323,8.013,26.613
			c3.062-1.588,5.688-4.1,8.874-6.01c12.092-7.245,30.765-13.229,50.077-10.017C499.643,193.29,498.523,192.527,497.801,191.863z
			 M571.917,180.129c-0.576-0.436-1.297,1.453-1.427,2.003c-1.095,4.65-1.972,11.246-3.15,16.026
			c6.093-0.721,12.606-1.562,18.606-2.574c1.801-0.307,3.529-1.282,5.433-1.147c1.843,0.135,3.586,1.308,5.439,2.004
			c5.849,2.205,11.672,3.986,17.168,6.01c-1.697-7.65-4.12-14.573-5.724-22.321C596.148,180.129,584.035,180.129,571.917,180.129z
			 M502.664,211.61c-2.932,0.306-6.051,0.96-9.155,1.432c-3.456,0.525-7.24,0.467-9.445,1.427c-1.323,0.576-3.472,2.839-5.149,4.577
			c-5.61,5.818-13.405,15.554-11.163,26.619c0.416,2.034,2.662,6.763,3.721,7.722c0.436,0.394,0.571,0.882,0.862,1.147
			c0.98,0.893,1.77,2.128,2.859,3.145c2.081,1.957,5.974,5.19,8.87,5.725c2.159,0.4,5.013-0.208,7.728-0.285
			c32.577-0.908,64.94,0.166,93.577,4.292c4.998,0.721,9.497,1.625,14.023,2.579c2.335,0.488,4.899,1.749,6.58,1.713
			c1.531-0.031,4.443-1.37,6.871-2.289c8.854-3.347,16.166-8.06,20.604-15.165c1.183-1.894,2.361-4.079,2.859-5.724
			c2.325-7.629,0.628-14.558-1.427-21.465C600.113,212.866,550.675,206.576,502.664,211.61z M355.86,225.347
			c-2.689-1.754-5.423-3.607-8.008-5.439c-0.291,0-0.576,0-0.861,0c-8.21,13.633-17.656,26.032-25.757,39.775
			c1.915,5.429,4.121,11.117,6.01,16.311c0.659,1.806,0.835,4.059,2.289,5.439c1.811-26.328,13.903-42.38,34.055-50.367
			C361.511,228.695,358.564,227.107,355.86,225.347z M449.438,223.629c-4.967,1.516-8.112,3.098-12.02,5.434
			c-3.067,1.842-5.641,3.742-8.298,6.01c-12.658,10.81-21.88,26.188-27.469,43.501c-1.178,3.638-2.709,7.406-2.574,11.158
			c7.172-6.036,15.912-10.546,25.466-14.308c11.054-4.349,23.401-8.06,38.633-7.728c-0.809-1.837-2.901-2.636-4.292-4.292
			c-3.441-4.085-6.233-10.634-7.157-17.168c-1.111-7.919,0.441-15.756,1.433-23.468C451.28,222.56,450.657,223.256,449.438,223.629z
			 M687.53,257.394c-1.935-4.853-4.681-9.528-7.722-12.59c-0.405-0.405-0.706-0.986-1.147-1.432
			c-6.088-6.166-14.993-9.861-25.757-10.587c-0.015,0.368-0.363,0.4-0.285,0.861c0.545,6.3-1.204,12.767-3.43,17.739
			c-4.007,8.927-10.634,15.3-18.32,20.033c-4.198,2.59-8.76,4.121-12.59,6.581c10.8,5.065,25.155,8.324,41.212,7.157
			c12.009-0.877,23.494-5.481,31.762-9.446C691.469,268.656,689.471,262.252,687.53,257.394z M367.023,241.083
			c-2.813,0.348-6.025,2.138-8.013,3.436c-3.581,2.33-6.072,4.743-8.869,8.298c-5.953,7.546-11.143,18.72-12.02,29.764
			c-1.043,13.063,3.358,27.096,15.165,27.755c6.181,0.348,11.522-3.103,14.594-5.724c2.169-1.842,3.311-3.239,5.153-5.434
			c6.228-7.437,11.812-19.275,12.59-30.905c0.587-8.75-1.11-16.265-4.292-20.894c-0.799-1.157-2.175-1.925-2.574-3.431
			C375.234,242.131,372.535,240.403,367.023,241.083z M713.858,256.253c0.27,9.803-1.993,17.085-4.577,24.039
			c-2.289,3.239-4.458,6.607-6.866,9.726c-3.659,3.218-7.551,5.688-12.019,7.728c-0.799,0.364-1.49,0.815-2.289,1.147
			c-0.753,0.306-1.759,0.363-2.289,1.142c40.771,10.452,69.149,33.298,84.703,68.967c6.217-5.735,9.923-13.001,10.017-23.754
			c0.104-11.833-3.96-21.122-8.87-30.044c-4.717-8.569-10.473-15.72-16.597-22.607c-12.518-14.08-26.359-26.172-41.212-37.205
			C713.858,255.682,713.858,255.967,713.858,256.253z M476.342,284.008c-2.486,0.218-4.925,0.887-7.442,1.147
			c-7.941,0.815-15.258,2.044-22.036,3.721c-18.927,4.676-34.886,11.189-47.788,21.459c-6.461,5.143-12.58,10.764-16.597,18.03
			c21.014-9.305,44.56-16.374,70.109-20.889c0.726-0.13,1.51-0.722,2.289-0.862c1.946-0.342,3.996,0.016,6.01-0.285
			c1.074-0.16,2.044-0.69,3.15-0.856c3.493-0.529,7.448-0.587,11.443-0.861c8.195-0.555,16.135-0.488,24.04,0
			c3.69,0.233,7.66,0.348,10.873,1.718c-41.524,8.268-80.167,19.42-115.323,34.056c5.89-0.28,12.834-1.354,18.315-2.003
			c1.832-0.218,3.555-0.099,5.433-0.285c49.236-4.925,107.637-7.157,150.526,4.292c0.95,0.254,1.858,0.732,1.718,0
			c1.095-20.054,3.098-38.996,10.302-52.656C550.478,284.013,511.549,280.925,476.342,284.008z M306.925,318.063
			c-7.588,16.265-15.357,33.843-18.6,54.089c-2.284,14.256-0.353,27.677,4.868,36.054c0.835,1.344,2.205,2.626,3.145,3.721
			c7.779,9.077,20.006,13.494,35.488,14.023c8.247,0.281,17.334,1.147,25.466,1.147c13.317,0,25.69-1.889,35.773-5.439
			c25.119-8.844,41.295-28.082,36.054-64.675c-8.709,2.019-18.289,3.456-28.041,3.721c-9.757,0.265-19.752-1.526-27.76-4.007
			c-14.184-4.396-25.606-12.118-34.056-21.751c-1.261-1.438-2.179-3.088-3.721-4.292c-6.964-9.918-12.383-21.382-16.311-34.341
			c-0.015-0.172-0.041-0.337-0.285-0.285C314.679,303.366,310.48,310.45,306.925,318.063z M272.299,328.65
			c-1.702,7.484-2.973,14.521-4.577,21.751c-1.261,5.699-2.735,11.298-3.145,16.883c5.252-0.182,11.246,0.374,16.021-0.286
			c1.204-17.349,5.984-32.877,12.311-44.642c0.192-0.363,1.614-1.401,0.571-2.004C286.633,323.336,278.962,325.485,272.299,328.65z
			 M426.259,424.517c-17.36,17.702-46.324,29.847-82.99,27.76c-15.523-0.882-29.141-4.276-42.354-8.013
			c0.524,9.98,2.797,19.587,6.3,27.76c11.574,27.039,37.746,43.273,75.834,38.919c3.56-0.41,7.354-0.311,10.873-1.147
			c2.958-0.701,6.321-2.413,9.445-3.721c3.124-1.303,6.207-2.865,9.155-4.292c17.884-8.641,36.069-19.348,43.786-36.63
			c1.033-4.464,1.101-9.855,0-14.308c-5.828-12.866-17.21-20.178-29.192-26.899C426.779,424.086,426.467,424.252,426.259,424.517z
			 M279.456,426.234c-2.201,1.121-4.52,2.144-6.866,3.15c-0.944,0.405-1.837,0.986-2.864,1.432
			c-0.976,0.416-2.678,0.104-3.145,1.427c2.278,7.027,5.724,13.992,8.869,21.179c3.145,7.188,5.735,14.822,9.445,21.46
			c2.523-0.991,5.149-1.671,7.723-2.574c1.308-0.462,2.838-0.722,3.721-1.718c-9.217-8.812-17.962-20.432-16.597-39.204
			c0.125-1.723,0.934-3.42,0.571-5.154C280.026,426.234,279.741,426.234,279.456,426.234z M450.299,517.238
			c5.994,2.252,12.642,4.307,20.033,5.148c10.089,1.157,19.737-0.716,26.037-3.716c4.464-2.123,7.406-4.754,10.302-8.013
			c1.977-2.221,3.483-4.52,4.868-7.157c1.396-2.657,2.481-5.543,4.007-8.298c2.875-5.205,5.849-11.345,6.295-18.03
			c0.363-5.408-0.613-9.451-2.289-12.59c-4.676-8.745-16.861-13.006-30.334-14.023c-3.295-0.249-10.706-0.701-13.452,0.285
			c-0.172,0.015-0.337,0.047-0.286,0.285c-0.348,12.124-6.191,21.756-11.734,29.478c-1.666,2.325-3.56,4.427-5.433,6.581
			c-3.695,4.24-7.504,8.48-11.734,12.02c-2.138,1.79-4.406,3.498-6.581,5.153c-2.299,1.744-4.894,3.078-6.871,5.149
			C438.871,512.941,444.481,515.053,450.299,517.238z M625.148,522.386c-9.175-9.533-19.851-19.073-30.905-26.899
			c-2.258-1.599-4.697-2.979-7.157-4.577c-3.903-2.528-8.335-5.668-12.305-7.728c-1.458-0.753-2.86-1.386-4.007-2.004
			c-9.316-5.003-20.36-9.829-31.767-12.305c-0.015,0.368-0.363,0.4-0.285,0.861c3.69,26.432-12.102,45.177-27.184,54.944
			c-1.64,1.059-3.669,1.484-4.868,3.145c21.06,5.419,38.934,14.127,54.088,25.472c3.716,2.782,7.105,6.015,10.587,9.155
			c0.685,0.618,1.443,1.027,2.003,1.432c1.235,0.882,2.185,2.361,3.15,3.43c1.599,1.775,3.389,3.358,4.863,5.153
			c2.989,3.628,5.927,7.256,8.584,11.163c2.719,3.986,5.076,8.127,7.728,12.3c2.18-4.899,4.738-11.044,5.725-17.739
			c1.899-12.912-1.012-26.764-5.154-36.059c5.86-2.932,13.286-4.774,21.751-4.292c10.634,0.607,19.831,5.232,26.042,9.731
			C640.183,538.532,632.825,530.373,625.148,522.386z M684.956,671.77c-0.742-16.286-3.316-34.102-7.152-50.367
			c-3.186-13.488-7.053-26.686-12.305-37.771c-0.602-1.261-1.64-2.554-2.003-3.436c-0.281-0.664-0.037-1.292-0.291-1.718
			c-1.194-2.003-4.858-4.796-7.437-6.581c-4.427-3.062-9.16-4.935-14.308-6.871c-4.982-1.868-11.781-4.292-17.459-4.577
			c0,0.285,0,0.571,0,0.856c-0.145,3.498-0.877,6.176-1.432,8.875c-0.581,2.828-0.877,5.724-1.718,8.869
			c-1.494,5.646-5.221,13.395-7.722,18.029c-1.23,2.278-2.922,5.34-4.868,8.013c-0.747,1.028-1.879,2.268-2.86,3.436
			c-1.323,1.573-2.797,2.802-2.86,3.721c-0.072,1.069,2.05,3.576,3.145,5.433c3.4,5.756,6.046,12.305,8.013,18.315
			c4.723,14.454,7.909,31.949,6.581,50.367c16.442-12.658,29.81-28.378,34.341-52.941c1.869,1.557,2.522,4.006,3.721,6.009
			c1.235,2.071,2.761,3.97,4.007,6.01c5.122,8.381,10.463,17.152,15.455,25.181c1.116,1.806,2.398,3.529,3.43,5.153
			c1.277,2.014,2.06,4.453,4.007,6.009C685.075,678.771,685.122,675.397,684.956,671.77z M377.039,575.042
			c-2.455,1.256-4.557,2.865-6.871,4.292c-4.043,2.507-8.143,5.2-11.158,8.298c-0.021,0.021-1.661,0.722-0.571,1.147
			c10.603,1.152,21.781,4.146,25.466,13.161c1.661-1.1,2.533-2.999,3.436-4.863c1.873-1.349,2.813-3.446,4.292-5.149
			c1.484-1.712,3.254-3.249,4.863-4.868c3.109-3.119,6.155-6.617,9.731-9.44c5.397-4.266,11.423-8.102,17.173-11.449
			c1.049-0.613,2.045-1.142,3.145-1.718c0.955-0.498,2.19-1.007,2.865-2.003C409.538,561.678,391.192,567.797,377.039,575.042z
			 M372.171,623.406c1.012-2.491,3.031-5.044,3.15-7.157c0.068-1.204-0.779-3.742-1.433-5.433
			c-3.093-8.039-10.063-12.513-22.035-11.449c-2.009,0.181-4.806,0.565-6.005,1.147c-1.246,0.597-2.086,2.346-3.436,3.721
			c-6.519,6.643-12.383,12.798-17.459,19.742c-2.164,2.963-4.525,5.86-5.433,9.446c3.752-0.748,7.623-1.708,11.729-2.004
			c9.129-0.654,17.936,2.74,24.039,5.725c0.197,1.136,1.438,1.235,2.289,1.718c2.185,2.201,4.329,4.448,6.586,6.581
			C366.873,638.025,369.198,630.765,372.171,623.406z M333.253,646.012c-5.974-0.477-11.937,1.141-16.312,3.721
			c-5.714,13.649-9.222,29.499-8.869,49.22c3.508-1.775,6.757-4.754,10.873-6.581c11.256-5.008,27.854-6.715,41.212-2.574
			c-1.677-8.693-1.557-20.282,0.571-28.331C354.552,654.664,345.667,647.004,333.253,646.012z M506.671,838.03
			c7.214,11.594,18.569,19.919,30.91,26.043c23.546-5.324,45.068-15.777,62.958-27.184c3.638-2.32,7.214-4.863,10.587-7.442
			c20.78-15.881,37.294-33.947,50.362-58.38c3.918-7.312,8.215-15.398,11.449-24.61c1.51-4.292,2.948-9.139,4.292-13.732
			c1.459-4.977,2.906-10.39,2.58-15.741c-0.591-9.58-4.017-17.76-8.304-25.181c-4.266-7.395-8.906-14.085-14.594-19.462
			c0.088-0.581-0.825,0.057-0.856,0.285c-9.684,12.191-20.178,24.543-33.194,32.909c-1.936,1.246-3.95,2.787-6.301,3.436
			c-3.451,12.398-7.919,23.93-13.732,33.485c-0.835,1.37-1.961,2.584-2.864,4.001c-1.801,2.844-3.254,5.677-5.149,8.304
			c-1.847,2.554-3.986,5.05-6.009,7.437c-20.692,24.397-50.212,40.667-89.856,45.79C497.848,820.364,502.135,830.739,506.671,838.03
			z M309.505,714.98c-0.031,11.9,2.756,20.552,5.719,28.902c0.207,0.571,0.124,1.225,0.291,1.718
			c0.539,1.609,1.323,3.16,2.003,4.863c1.77,4.448,3.845,8.21,5.719,12.02c3.062,6.207,5.984,11.926,10.017,16.887
			c4.001-9.918,8.848-19.482,14.884-27.475c6.062-8.034,13.156-15.455,23.463-19.171c-3.337-10.109-6.98-19.924-9.44-30.905
			C340.918,697.386,318.929,703.256,309.505,714.98z M384.767,756.187c-0.939-1.349-2.47-3.254-3.721-5.433
			c-0.825-1.438-2.029-6.093-4.007-5.439c-3.643,1.21-7.146,3.213-9.731,5.149c-4.661,3.503-8.376,7.893-11.735,13.166
			c-3.887,6.108-6.326,12.876-8.584,20.889c-0.805,2.86-2.159,6.062-2.003,8.013c0.145,1.806,3.332,6.326,4.292,7.728
			c2.314,3.379,4.774,6.472,6.871,8.87c9.191,10.54,18.772,18.149,29.759,25.757c5.522,3.82,10.986,7.785,17.458,10.302
			c0.493-23.349,2.61-45.084,9.44-62.101C402.21,775.535,392.401,767.205,384.767,756.187z M423.971,790.528
			c-6.757,15.745-9.632,44.222-3.721,63.242c25.643,10.686,59.309,17.007,95.866,14.023c-1.344-1.982-3.809-2.667-5.724-4.006
			c-0.888-0.623-1.671-1.567-2.574-2.288c-6.394-5.112-12.035-10.696-16.597-17.459c-6.16-9.118-10.717-20.993-9.446-36.054
			C457.59,807.083,440.506,799.08,423.971,790.528z"/>
	</g>
	<g>
		<path style="fill-rule:evenodd;clip-rule:evenodd;" d="M618.563,245.089c-1.235,1.427-3.379,1.692-5.149,2.289
			c-5.2,1.759-11.018,3.57-16.882,4.868c-3.571,1.489-7.609,2.138-11.449,3.145c-8.065,2.123-17.438,3.71-28.331,2.579
			c-12.118-1.261-24.646-5.07-34.626-9.16c-5.008-2.055-9.326-5.444-14.308-8.013c-1.998-1.028-4.059-1.983-6.01-2.86
			c-0.991-0.446-2.127-0.706-3.145-1.147c-0.887-0.379-1.9-1.08-2.58-1.718c19.218-0.202,27.444-10.25,44.928-12.02
			c11.963-1.209,23.085,0.929,32.338,4.006c5.356,1.786,10.665,3.451,14.884,6.295c2.154,1.458,4.038,3.041,6.295,4.297
			C600.99,241.239,609.169,244.316,618.563,245.089z M583.937,240.512c-0.114-1.163-1.438-2.663-3.145-3.721
			c-3.872-2.387-10.323-4.043-16.027-4.578c-4.567-0.425-10.903-0.763-14.879-0.285c-4.681,0.561-9.974,0.701-14.884,2.289
			c-3.378,1.095-9.077,3.446-8.869,7.152c0.171,3.062,5.252,5.397,9.445,6.586c13.032,3.684,27.127,2.543,39.775,0
			C578.321,245.691,584.429,245.541,583.937,240.512z"/>
	</g>
	<g>
		<path style="fill-rule:evenodd;clip-rule:evenodd;" d="M376.469,269.128c-5.725,7.541-12.035,14.485-18.03,21.751
			c-4.422-2.164-7.032-6.134-11.163-8.584c5.751-7.707,12.077-14.828,18.315-22.036C369.4,263.031,372.82,266.196,376.469,269.128z"
			/>
	</g>
	<g>
		<path style="fill-rule:evenodd;clip-rule:evenodd;" d="M357.578,366.142c8.278,5.278,14.921,11.381,13.452,24.61
			c-0.4,3.586-2.123,7.411-4.007,10.016c-1.946,2.689-3.975,4.427-7.156,6.295c-3.867,2.273-10.603,4.292-17.453,2.574
			c-4.526-1.131-8.366-4.022-11.449-7.442c-0.218-0.239-0.659-0.332-0.856-0.571c-0.431-0.519-0.457-1.443-0.862-2.004
			c-0.348-0.488-0.643-0.934-1.142-1.718c-0.156-0.239-0.763-0.358-0.861-0.571c-0.28-0.607-0.529-2.263-0.856-3.436
			c-1.043-3.711-1.028-9.887,0.285-13.732c0.618-1.806,1.038-2.668,2.003-4.297c3.446-5.813,9.726-10.997,18.6-11.443
			C351.552,364.211,353.675,365.498,357.578,366.142z"/>
	</g>
	<g>
		<path style="fill-rule:evenodd;clip-rule:evenodd;" d="M381.331,459.143c7.982-1.188,14.417,2.387,18.315,6.871
			c2.74,3.15,5.268,8.76,4.577,15.165c-1.105,10.245-9.565,16.924-18.029,17.744c-3.779,0.368-7.686-0.81-10.302-2.004
			c-5.979-2.735-12.398-9.233-11.729-19.171c0.265-4.022,1.827-7.323,3.716-10.017C371.009,463.258,374.123,460.217,381.331,459.143
			z"/>
	</g>
	<g>
		<path style="fill-rule:evenodd;clip-rule:evenodd;" d="M481.49,477.172c5.703-0.908,10.193,0.986,13.166,4.292
			c2.071,2.31,4.24,7.011,3.431,12.305c-1.064,6.98-10.784,14.879-20.318,10.302c-2.528-1.209-4.37-3.254-6.009-5.719
			c-0.955-1.442-1.204-1.915-1.713-4.292c-0.555-2.569-0.623-6.171,0.571-8.874c0.068-0.161,0.483,0.041,0.571-0.285
			c0.426-1.599,1.9-3.14,3.15-4.292C476.128,478.958,477.982,477.733,481.49,477.172z"/>
	</g>
	<g>
		<path style="fill-rule:evenodd;clip-rule:evenodd;" d="M381.046,578.477c-0.052-0.244,0.109-0.27,0.285-0.285
			c1.334,0,2.673,0,4.007,0c2.85,1.785,4.531,2.948,4.863,5.724c0.426,3.519-2.071,6.986-4.863,7.723
			c-2.745,0.731-6.668-0.644-8.013-2.86C375.197,585.271,377.086,579.344,381.046,578.477z"/>
	</g>
	<g>
		<path style="fill-rule:evenodd;clip-rule:evenodd;" d="M484.64,579.334c38.218-1.821,66.295,15.896,83.276,37.491
			c1.022,1.303,1.982,2.87,3.145,4.577c0.161,0.239,0.467-0.114,0.571,0.286c0.27,1.001,1.837,2.797,2.58,4.007
			c1.297,2.123,2.62,4.536,4.006,6.871c0.094,0.156-0.135,0.737,0,0.857c1.697,1.489,3.316,6.352,4.292,8.869
			c3.233,8.34,6.056,19.317,6.581,30.334c1.531,32.109-10.572,55.635-26.328,72.688c-11.693,12.658-26.806,22.95-46.07,28.331
			c-6.388,1.78-13.597,3.171-21.179,3.43c-30.495,1.054-55.728-9.902-72.689-26.037c-17.438-16.602-29.333-36.786-31.761-67.25
			c-1.889-23.639,5.994-44.544,15.165-58.666c14.121-21.74,35.561-38.975,66.679-44.643
			C476.845,579.765,480.696,579.526,484.64,579.334z M453.159,595.36c-10.463,4.899-19.275,10.79-26.614,18.03
			c-14.816,14.62-26.156,34.627-27.184,62.102c-0.674,17.983,4.401,33.858,10.587,45.214c1.142,2.102,2.533,4.998,4.007,6.295
			c0.14,0.119-0.104,0.7,0,0.856c2.989,4.504,6.57,8.651,10.017,12.305c14.157,15.019,33.853,26.738,60.669,28.617
			c14.241,1.002,28.938-2.081,40.351-6.866c13.639-5.719,25.57-14.739,34.05-25.181c5.527-6.809,9.918-13.353,13.737-22.036
			c2.31-5.257,4.702-11.179,6.01-17.744c1.334-6.695,2.512-14.501,2.003-21.745c-1.215-17.324-6.041-31.419-12.591-42.64
			c-9.835-16.841-22.695-28.477-40.922-36.92c-10.234-4.734-22.031-7.992-36.344-8.014c-0.005,0-0.229,0-0.286,0
			C475.765,587.653,463.652,590.45,453.159,595.36z"/>
	</g>
	<g>
		<path style="fill-rule:evenodd;clip-rule:evenodd;" d="M354.718,627.412c-14.547,2.818-14.184-16.172-3.721-16.883
			c4.842-0.332,10.623,3.986,9.16,10.873C359.545,624.267,356.996,625.632,354.718,627.412z"/>
	</g>
	<g>
		<path style="fill-rule:evenodd;clip-rule:evenodd;" d="M335.256,658.893c5.024-0.991,9.477,1.298,11.734,4.578
			c4.095,5.942,0.835,16.275-6.866,17.738c-2.834,0.54-7.317-0.078-9.731-1.998c-0.083-0.068-2.056-3.295-2.574-3.436
			c-1.235-0.332-2.029-4.671-1.718-7.157C326.703,663.813,330.098,659.906,335.256,658.893z"/>
	</g>
	<g>
		<path style="fill-rule:evenodd;clip-rule:evenodd;" d="M644.891,704.678c11.303-1.895,20.1,5.216,22.036,14.022
			c3.155,14.355-10.188,25.119-22.607,22.321c-2.144-0.483-4.931-1.847-6.866-3.15c-1.728-1.157-4.401-4.365-5.725-6.866
			c-0.083-0.161,0.13-0.748,0-0.861c-0.062-0.052-0.545,0.072-0.571,0c-0.478-1.152-0.638-2.876-0.861-4.292
			C628.558,714.622,635.529,707.034,644.891,704.678z"/>
	</g>
	<g>
		<path style="fill-rule:evenodd;clip-rule:evenodd;" d="M348.709,738.158c-3.041,2.729-7.894,6.42-14.594,4.868
			c-6.316-1.464-11.869-8.387-10.878-16.026c0.825-6.327,6.555-11.61,12.305-12.305
			C348.454,713.127,356.197,727.441,348.709,738.158z"/>
	</g>
	<g>
		<path style="fill-rule:evenodd;clip-rule:evenodd;" d="M376.178,776.505c4.437-1.329,10.728,1.625,12.596,3.15
			c4.515,3.69,7.909,12.715,4.007,20.033c-0.109,0.197-0.477-0.078-0.576,0.285c-0.342,1.282-1.427,2.05-2.574,3.145
			c-2.72,2.6-6.529,5.262-12.591,4.583c-1.417-0.161-5.06-1.038-6.295-2.008c-0.441-0.343-0.628-1.023-1.147-1.427
			c-0.623-0.488-1.334-0.493-1.718-0.861c-0.664-0.638-1.567-1.92-2.289-2.86c-0.758-0.991-0.877-1.188-1.427-2.574
			c-0.12-0.295,0.171-0.887,0-1.147c-0.156-0.233-0.462,0.109-0.576-0.285C360.687,786.334,367.786,777.995,376.178,776.505z"/>
	</g>
	<g>
		<path style="fill-rule:evenodd;clip-rule:evenodd;" d="M541.873,806.839c7.504-1.1,12.902,1.505,16.883,5.439
			c2.849,2.813,5.351,6.498,6.009,10.873c1.786,11.807-6.778,23.193-19.176,23.468c-8.257,0.182-14.734-4.629-17.739-9.731
			c-2.32-3.939-4.121-11.008-2.003-17.168C528.047,813.321,534.348,807.945,541.873,806.839z"/>
	</g>
	<g>
		<path style="fill-rule:evenodd;clip-rule:evenodd;" d="M452.017,817.141c3.768-0.364,7.095,0.565,10.017,2.288
			c3.098,1.832,6.856,6.845,7.437,10.878c0.727,5.029-1.661,10.343-4.577,13.162c-1.251,1.209-3.384,3.249-5.439,4.006
			c-11.905,4.401-23.987-6.669-21.175-18.6C439.727,822.73,445,817.816,452.017,817.141z"/>
	</g>
	<g>
		<g>
			<path d="M188.611,466.531c-0.029,0-0.06,0-0.091-0.003c-1.069-0.057-1.918-0.836-1.858-1.905c0.016-0.293,0.07-0.589,0.132-0.882
				c0.228-1.048,1.279-1.689,2.307-1.487c1.046,0.228,1.713,1.259,1.487,2.307C190.531,465.599,189.644,466.531,188.611,466.531z"/>
		</g>
	</g>
</g>
</svg>
